#!OML:ASF H:\MichaelJackson\Top Level 1\Subject 1\Session 1\male.ASF
:FULLY-SPECIFIED
:DEGREES
1219
root -8.49046 16.8995 9.71796 -170.017 0.634719 -182.485
lowerback 4.26344 0.309912 -2.36573
upperback 1.20931 0.359195 -0.607304
thorax -1.15767 0.206062 0.684527
lowerneck -9.14493 -0.0429655 3.16052
upperneck 10.3102 -0.265873 -2.66081
head 4.57955 -0.20334 -1.35626
rclavicle -8.44835e-016 -6.4605e-016
rhumerus -20.3659 23.6548 -89.066
rradius 74.4542
rwrist 34.1745
rhand -45.0782 -34.322
rfingers 7.12502
rthumb -17.8589 -63.5219
lclavicle -8.44835e-016 -6.4605e-016
lhumerus -44.9512 -19.3586 90.2194
lradius 83.5729
lwrist -2.87756
lhand -15.9105 28.317
lfingers 7.12502
lthumb 10.2865 58.0455
rfemur -50.8123 -2.49623 19.6623
rtibia 67.5594
rfoot 6.23193 7.45254
rtoes -1.86955
lfemur -24.2771 11.8476 -26.2357
ltibia 43.0937
lfoot -22.3213 -13.0157
ltoes 33.9814
1220
root -8.48302 16.9033 9.79428 -169.81 0.441044 -182.427
lowerback 4.17553 0.229751 -2.35927
upperback 1.12106 0.249205 -0.552212
thorax -1.19621 0.149902 0.743303
lowerneck -9.17251 -0.0134127 2.8374
upperneck 10.3055 -0.217872 -2.34303
head 4.58518 -0.172559 -1.2022
rclavicle 1.86361e-015 4.82053e-015
rhumerus -21.445 23.6113 -89.7812
rradius 74.0641
rwrist 34.016
rhand -45.3542 -34.166
rfingers 7.12502
rthumb -18.1245 -63.3416
lclavicle 1.86361e-015 4.82053e-015
lhumerus -44.292 -19.4858 89.6827
lradius 85.6658
lwrist -3.5676
lhand -17.6234 26.9016
lfingers 7.12502
lthumb 8.63382 56.7051
rfemur -51.1693 -2.44997 19.6822
rtibia 68.6886
rfoot 7.20778 7.69547
rtoes -0.233673
lfemur -24.8615 11.8022 -26.221
ltibia 43.1049
lfoot -21.9698 -13.2168
ltoes 34.1249
1221
root -8.47496 16.9114 9.86805 -169.786 0.394097 -182.502
lowerback 4.24377 0.17948 -2.53405
upperback 1.07821 0.171526 -0.541818
thorax -1.27637 0.112458 0.855621
lowerneck -9.3921 0.0169147 2.91282
upperneck 10.5011 -0.179725 -2.46027
head 4.6828 -0.159789 -1.25002
rclavicle -8.19987e-016 5.31749e-015
rhumerus -22.5565 23.6376 -90.4978
rradius 73.6478
rwrist 34.0944
rhand -45.4425 -34.482
rfingers 7.12502
rthumb -18.2094 -63.6496
lclavicle -8.19987e-016 5.31749e-015
lhumerus -43.593 -19.5076 89.1204
lradius 87.6487
lwrist -4.32908
lhand -18.5369 26.7161
lfingers 7.12502
lthumb 7.75217 56.554
rfemur -51.2901 -2.31313 19.5259
rtibia 69.8545
rfoot 8.30192 7.99562
rtoes 1.38584
lfemur -25.1929 11.8499 -26.3316
ltibia 43.0753
lfoot -21.6511 -13.3497
ltoes 34.398
1222
root -8.47217 16.9183 9.93011 -169.821 0.548394 -182.516
lowerback 4.21163 0.212557 -2.56607
upperback 1.0735 0.214947 -0.570738
thorax -1.26468 0.13419 0.841688
lowerneck -9.32096 0.053557 2.76242
upperneck 10.4619 -0.125871 -2.30606
head 4.66069 -0.129393 -1.17375
rclavicle 2.5842e-015 3.13086e-015
rhumerus -23.6487 23.6291 -91.2159
rradius 73.1967
rwrist 33.908
rhand -45.5826 -34.4198
rfingers 7.12502
rthumb -18.3442 -63.5749
lclavicle 2.5842e-015 3.13086e-015
lhumerus -42.8875 -19.6129 88.52
lradius 89.564
lwrist -5.25784
lhand -19.204 26.1469
lfingers 7.12502
lthumb 7.10828 56.0075
rfemur -51.2873 -2.10383 19.4271
rtibia 71.054
rfoot 9.27666 8.27629
rtoes 2.58597
lfemur -25.392 11.9593 -26.4073
ltibia 43.0639
lfoot -21.524 -13.3279
ltoes 34.3486
